<?xml version="1.0" encoding="UTF-8" standalone="no"?><!DOCTYPE svg PUBLIC "-//W3C//DTD SVG 1.1//EN" "http://www.w3.org/Graphics/SVG/1.1/DTD/svg11.dtd"><svg width="100%" height="100%" viewBox="0 0 2366 1782" version="1.1" xmlns="http://www.w3.org/2000/svg" xmlns:xlink="http://www.w3.org/1999/xlink" xml:space="preserve" xmlns:serif="http://www.serif.com/" style="fill-rule:evenodd;clip-rule:evenodd;stroke-miterlimit:10;"><path d="M917.453,1161.317c0.25,-1.542 -0.917,-2.917 -2.458,-2.917c-413.792,-0.042 -689.375,-0.167 -826.792,-0.375c-14.625,0 -29.625,-4 -42.583,-12c-33.917,-20.958 -48,-52.542 -42.292,-94.708c3.5,-25.958 28.167,-53.667 53.708,-62.125c7.125,-2.375 18.958,-3.542 35.583,-3.583c290.292,-0.5 574.875,-0.583 853.833,-0.292c1.167,0 2.167,-0.833 2.375,-1.958c53.958,-306.208 101.667,-578.25 143.167,-816.167c4.417,-25.458 8.542,-50.875 12.375,-76.25c2.542,-16.833 6.625,-37.25 17.208,-51.417c24,-32.25 51.875,-37.458 94.208,-37.167c53.5,0.375 165.667,0.333 336.542,-0.083c2.125,0 3.75,1.917 3.375,4l-102.417,585.417c-0.375,2 1.333,3.833 3.375,3.625c4.708,-0.417 7.583,-0.625 8.625,-0.625c340.042,-0.625 612.917,-0.542 818.667,0.25c12.042,0.083 26.833,4.375 37.375,10.917c33.792,20.875 47.25,51.583 40.375,92.208c-5.125,29.958 -30.083,57.875 -59.958,67c-6.75,2.042 -19.667,3.083 -38.75,3.042c-300.333,-0.125 -579.375,-0.292 -837.083,-0.5c-1.375,0 -2.542,1 -2.792,2.375c-40.458,241.292 -76.917,438.25 -120.542,686.708c-16.917,96.333 -30.833,166.792 -44.708,252.375c-5.125,31.667 -21.125,53 -47.958,64c-10.375,4.292 -27.875,6.417 -52.5,6.417c-78.875,-0.042 -194,-0.083 -345.333,-0.125c-1.458,0 -2.542,-1.292 -2.292,-2.708l107.667,-615.333Zm1183.625,-632c-0.25,1.333 -1.375,2.292 -2.708,2.292l-402.042,0c-0.792,0 -1.423,-0.751 -1.292,-1.542c14.98,-90.408 29.531,-159.418 41.667,-235.875c7.077,-44.584 21.358,-114.413 29.917,-172.75c3.845,-26.207 5.964,-54.039 16.167,-74.458c15.217,-30.454 42,-45.423 80.375,-44.875c37.542,0.536 120.334,0.584 248.375,0c25.542,-0.117 41.905,1.937 49.208,6.125c25.417,14.573 25.876,38.458 20.417,67.667c-12.998,69.542 -39.708,220.708 -80.083,453.417Zm-1777.542,392.708c-1.417,0 -2.506,-1.251 -2.292,-2.667c4.421,-29.227 14.986,-89.252 31.292,-180.042c7.91,-44.043 39.612,-223.203 94.958,-537.5c5.503,-31.249 12.289,-73.209 17.958,-110.25c6.122,-40 16.613,-67.528 53.75,-83.292c9.539,-4.049 26.583,-5.96 51.208,-5.708c48.708,0.497 131.417,0.446 248.083,-0.25c33.542,-0.2 60.044,19.792 56.875,55.917c-2.748,31.333 -12.613,70.252 -17.625,101.292c-16.21,100.381 -38.708,216.875 -57.542,326c-24.833,144.167 -50.861,288.864 -76.5,434.417c-0.213,1.208 -1.25,2.083 -2.5,2.083l-397.667,0Zm1324.292,-91.292c0.124,-1.042 1.042,-1.833 2.083,-1.833l401.083,0c1.583,0 2.785,1.416 2.542,2.958c-4.591,29.146 -28.667,167.917 -72.625,416.25c-45.958,259.792 -73.152,412.037 -81.5,456.833c-3.595,19.29 -6.958,31.375 -10.125,36.333c-10.458,16.375 -23.5,27.542 -39.208,33.5c-8.458,3.208 -25.584,4.785 -51.333,4.583c-4.542,-0.036 -89.958,-0.081 -256.292,-0.292c-27.167,-0.034 -43.693,-9.825 -49.542,-29.417c-2.972,-9.954 -1.844,-30.002 3.417,-60.125c12.059,-69.046 24.286,-138.668 36.625,-208.792c5.081,-28.875 12.468,-69.04 22.125,-120.542c8.758,-46.707 15.566,-85.753 20.5,-117.167c8.096,-51.546 17.749,-97.667 27.917,-156c9.79,-56.167 18.649,-106.92 26.542,-152.208c11.35,-65.129 17.287,-99.834 17.792,-104.083Zm-1375.917,391.417c0.242,-1.376 1.417,-2.375 2.792,-2.375l397.875,0c0.875,0 1.652,0.669 1.792,1.542c0.34,2.131 -0.382,8.874 -2.333,20.25c-27.264,158.942 -52.844,307.665 -77.042,446.125c-5.294,30.291 -11.046,49.997 -17.208,59.125c-14.259,21.119 -35.792,31.865 -64.625,32.25c-3.042,0.041 -91.667,0.009 -265.875,-0.292c-20.667,-0.036 -34.2,-2.013 -40.583,-5.917c-24.885,-15.218 -25.525,-36.414 -20.458,-65.875c1.756,-10.207 9.042,-51.042 21.833,-122.417c26.583,-147.958 47.355,-268.84 63.833,-362.417Z" style="fill:#101010;stroke:#727272;stroke-width:0.42px;"/></svg>